<?xml version="1.0" encoding="utf-8"?>
<!-- Generator: Adobe Illustrator 23.0.1, SVG Export Plug-In . SVG Version: 6.00 Build 0)  -->
<svg version="1.1" id="Livello_1" xmlns="http://www.w3.org/2000/svg" xmlns:xlink="http://www.w3.org/1999/xlink" x="0px" y="0px"
	 viewBox="0 0 40 40" style="enable-background:new 0 0 40 40;" xml:space="preserve">
<style type="text/css">
	.st0{fill-rule:evenodd;clip-rule:evenodd;fill:#17C671;}
	.st1{fill:#FFFFFF;}
</style>
<circle class="st0" cx="20" cy="20" r="20"/>
<g>
	<g id="XMLID_282_">
		<g id="XMLID_284_">
			<path id="XMLID_288_" class="st1" d="M28.5,31.5c-0.6,0-1.3,0-1.9,0c-0.1,0-0.2,0-0.3,0c-0.1,0-0.2,0-0.3,0c-0.8,0-1.7,0-2.5-0.1
				c-0.8-0.1-1.6-0.1-2.5-0.2c-0.8-0.1-1.6-0.2-2.5-0.4c-0.8-0.1-1.6-0.3-2.4-0.5c-0.8-0.2-1.6-0.4-2.4-0.6
				c-0.8-0.2-1.6-0.5-2.4-0.7c-0.8-0.3-1.6-0.5-2.4-0.8c-0.3-0.1-0.5-0.2-0.8-0.3c0.1-0.3,0.1-0.5,0.2-0.8c0.3-0.9,0.5-1.9,0.8-2.8
				c0.1-0.4,0.2-0.8,0.3-1.1c0.4,0.3,0.9,0.6,1.3,0.9c0.1,0,0.1,0.1,0.2,0.1c0,0,0,0,0.1,0c-0.1,0.2-0.1,0.5-0.2,0.7
				c-0.2,0.7-0.4,1.3-0.6,2c0.5,0.2,1,0.4,1.5,0.6c0.8,0.3,1.6,0.6,2.3,0.8c0.8,0.3,1.6,0.5,2.4,0.7c0.8,0.2,1.6,0.4,2.4,0.6
				c0.8,0.2,1.6,0.4,2.4,0.6c0.8,0.2,1.6,0.3,2.4,0.5c0.3,0,0.5,0.1,0.8,0.1c0.4,0.1,0.9,0.2,1.4,0.2c0.1,0,0.2,0,0.3,0
				C26.8,31.3,27.6,31.4,28.5,31.5z"/>
			<path id="XMLID_287_" class="st1" d="M27.4,31.2c-0.6-0.2-1.2-0.3-1.8-0.5c-0.1,0-0.1,0-0.2-0.1c-0.1,0-0.2-0.1-0.4-0.1
				c-0.8-0.3-1.6-0.5-2.4-0.8c-0.8-0.3-1.6-0.6-2.3-1c-0.8-0.3-1.5-0.7-2.3-1.1c-0.8-0.4-1.5-0.8-2.3-1.2c-0.7-0.4-1.5-0.9-2.2-1.3
				c-0.7-0.5-1.4-0.9-2.2-1.4c-0.1,0-0.1-0.1-0.2-0.1c-0.5-0.3-1-0.7-1.5-1.1c-0.2-0.1-0.3-0.2-0.5-0.4C9,22,8.8,21.8,8.5,21.7
				c0.1-0.2,0.3-0.5,0.4-0.7c0.5-0.8,0.9-1.6,1.4-2.4c0.2-0.3,0.4-0.7,0.6-1c0.3,0.4,0.7,0.8,1,1.2c0,0.1,0.1,0.1,0.1,0.2l0,0
				c0,0,0,0.1,0.1,0.1c-0.1,0.2-0.2,0.4-0.4,0.6c-0.3,0.6-0.7,1.2-1.1,1.8c0.3,0.2,0.6,0.5,0.9,0.7c0.1,0.1,0.3,0.2,0.4,0.3
				c0.7,0.5,1.4,1,2.1,1.5c0.7,0.5,1.4,1,2.1,1.4c0.7,0.5,1.4,0.9,2.1,1.3c0.7,0.4,1.5,0.8,2.2,1.3c0.7,0.4,1.5,0.8,2.2,1.2
				c0.3,0.1,0.5,0.3,0.8,0.4c0.4,0.2,0.8,0.4,1.2,0.6c0.1,0,0.2,0.1,0.3,0.1C25.8,30.5,26.6,30.9,27.4,31.2z"/>
			<path id="XMLID_286_" class="st1" d="M26.3,30.6c-0.7-0.4-1.4-0.9-2.2-1.4c-0.7-0.5-1.4-1-2.1-1.5c-0.7-0.5-1.4-1.1-2-1.6
				c-0.7-0.6-1.3-1.1-2-1.7c-0.6-0.6-1.3-1.2-1.9-1.8c-0.6-0.6-1.2-1.3-1.8-1.9c-0.6-0.7-1.2-1.3-1.8-2l0,0c0-0.1-0.1-0.1-0.1-0.2
				c-0.3-0.4-0.7-0.8-1-1.3c-0.1-0.1-0.1-0.1-0.2-0.2c-0.1-0.2-0.3-0.3-0.4-0.5c-0.2-0.2-0.4-0.5-0.5-0.7c0.2-0.2,0.4-0.4,0.5-0.5
				c0.6-0.7,1.3-1.3,1.9-1.9c0.3-0.3,0.5-0.5,0.8-0.8c0.1,0.2,0.2,0.4,0.3,0.6c0,0.1,0.1,0.1,0.1,0.2c0.2,0.3,0.3,0.7,0.5,1
				c-0.2,0.2-0.3,0.3-0.5,0.5c-0.3,0.3-0.6,0.6-0.9,0.9c-0.2,0.2-0.3,0.3-0.5,0.5c0.1,0.2,0.3,0.4,0.4,0.5c0.1,0.1,0.1,0.1,0.2,0.2
				c0.1,0.1,0.1,0.1,0.2,0.2c0.1,0.1,0.2,0.3,0.3,0.4c0,0,0,0,0,0c0.5,0.7,1.1,1.4,1.7,2.1c0.6,0.7,1.1,1.3,1.7,2
				c0.6,0.6,1.2,1.3,1.8,1.9c0.6,0.6,1.2,1.3,1.8,1.9c0.6,0.6,1.2,1.2,1.9,1.8c0.6,0.6,1.3,1.2,1.9,1.7C25,29.5,25.7,30.1,26.3,30.6
				z"/>
			<path id="XMLID_285_" class="st1" d="M32.9,21.8c-0.5-0.5-1-1.1-1.5-1.7c-0.5-0.6-1-1.2-1.4-1.8c-0.5-0.6-0.9-1.2-1.4-1.8
				c-0.4-0.6-0.9-1.3-1.3-1.9c-0.8-1.3-1.6-2.6-2.4-4c-0.4-0.7-0.7-1.4-1.1-2.1c-0.2-0.5-0.4-0.9-0.7-1.4c-0.2,0.1-0.3,0.2-0.5,0.3
				c-0.4,0.2-0.8,0.4-1.1,0.7c-0.4,0.2-0.8,0.5-1.2,0.7c-0.4,0.2-0.7,0.4-1.1,0.6c-0.1,0-0.1,0.1-0.2,0.1c-0.1,0.1-0.3,0.2-0.4,0.2
				c-0.6,0.3-1.1,0.6-1.7,1c-0.4,0.2-0.7,0.4-1.1,0.6c-0.2,0.1-0.4,0.2-0.6,0.3c0.2,0.4,0.3,0.8,0.5,1.1c0.1,0.2,0.1,0.3,0.2,0.5
				c0,0,0,0,0,0.1c0.4,0.8,0.8,1.7,1.1,2.5c0.4,0.8,0.8,1.6,1.2,2.4c0.4,0.8,0.8,1.6,1.3,2.4c0.4,0.8,0.9,1.6,1.4,2.3
				c0.5,0.8,0.9,1.5,1.4,2.3c0.5,0.8,1,1.5,1.5,2.3c0.5,0.7,1,1.5,1.5,2.2c-0.6-0.6-1.2-1.3-1.8-2c-0.6-0.7-1.1-1.4-1.7-2.1
				c-0.5-0.7-1.1-1.4-1.6-2.2c-0.5-0.7-1-1.5-1.5-2.3c-0.5-0.8-1-1.5-1.4-2.3c-0.5-0.8-0.9-1.6-1.3-2.4c-0.4-0.8-0.9-1.6-1.3-2.5
				c0-0.1-0.1-0.1-0.1-0.2c-0.2-0.5-0.5-1-0.7-1.5c0-0.1-0.1-0.2-0.1-0.2c-0.1-0.2-0.2-0.4-0.3-0.6c-0.1-0.3-0.2-0.6-0.4-0.9
				c0.2-0.1,0.4-0.2,0.6-0.4c0.8-0.4,1.5-0.9,2.3-1.3c0.8-0.4,1.5-0.8,2.3-1.3c0,0,0,0,0,0c0.2-0.1,0.5-0.3,0.7-0.4
				c0.5-0.3,1.1-0.6,1.6-0.8c0.4-0.2,0.8-0.4,1.2-0.6c0.4-0.2,0.8-0.4,1.2-0.6c0.2-0.1,0.4-0.2,0.7-0.3c0.1,0.2,0.2,0.5,0.3,0.7
				c0.3,0.7,0.6,1.4,0.9,2.1c0.3,0.7,0.6,1.4,1,2.1c0.7,1.4,1.4,2.7,2.1,4.1c0.4,0.7,0.7,1.3,1.1,2c0.4,0.7,0.8,1.3,1.2,2
				c0.4,0.6,0.8,1.3,1.2,1.9C32.1,20.5,32.5,21.2,32.9,21.8z"/>
		</g>
		<path id="XMLID_283_" class="st1" d="M28.9,22.4c-0.1-0.6-0.3-1.2-0.6-1.8c-1-1.9-2.9-2.7-4.1-1.8c-0.7,0.5-1.1,1.4-1.1,2.4
			c-0.2-1.3,0.2-2.6,1.1-3.2c1.3-0.9,3.1-0.1,4.1,1.8C28.7,20.6,28.9,21.5,28.9,22.4z"/>
	</g>
</g>
</svg>
